<svg xmlns="http://www.w3.org/2000/svg" viewBox="0 0 316 223"><defs><style>.cls-1{fill:#c1272d;stroke:#fbb03b;stroke-width:4px;}.cls-1,.cls-2{stroke-miterlimit:10;}.cls-2{stroke:#000;}</style></defs><title>Asset 1</title><g id="Layer_2" data-name="Layer 2"><g id="Working_Layer" data-name="Working Layer"><path class="cls-1" d="M89,28V2H23V28H2V221H314V28Zm61.3,141.32a50.26,50.26,0,1,1,50.25-50.25A50.26,50.26,0,0,1,150.3,169.32ZM242.13,89a19,19,0,1,1,19-19A19,19,0,0,1,242.13,89Z"/><path class="cls-2" d="M200.55,119.07A50.26,50.26,0,1,1,150.3,68.81,50.25,50.25,0,0,1,200.55,119.07Z"/><circle class="cls-2" cx="242.13" cy="70" r="19"/></g></g></svg>