<svg xmlns="http://www.w3.org/2000/svg" viewBox="0 0 222.01 220.29"><defs><style>.cls-1{fill:none;stroke-width:4px;}.cls-1,.cls-4{stroke:#000;stroke-miterlimit:10;}.cls-2{font-size:46.61px;}.cls-2,.cls-3{font-family:MyriadPro-Regular, Myriad Pro;}.cls-3{font-size:42.86px;}.cls-4{stroke-width:2px;}</style></defs><title>Asset 2</title><g id="Layer_2" data-name="Layer 2"><g id="Working_Layer" data-name="Working Layer"><circle class="cls-1" cx="114.88" cy="110.88" r="88"/><line class="cls-1" x1="116.82" y1="12.88" x2="116.82" y2="34.88"/><line class="cls-1" x1="190.88" y1="109.88" x2="209.8" y2="109.88"/><line class="cls-1" x1="12.88" y1="107.31" x2="38.88" y2="107.31"/><line class="cls-1" x1="116.82" y1="190.29" x2="116.82" y2="207.64"/><line class="cls-1" x1="66.82" y1="119.78" x2="114.82" y2="53.78"/><line class="cls-1" x1="170.95" y1="145.78" x2="114.82" y2="53.78"/><text class="cls-2" transform="translate(85.82 121.27) scale(1.33 1)">W</text><text class="cls-3" transform="translate(116.39 146.89) scale(1.39 1)">G</text><line class="cls-4" x1="13.08" y1="96.11" x2="13.08" y2="118.51"/><line class="cls-4" x1="13.08" y1="96.11" x2="0.69" y2="107.89"/><line class="cls-4" x1="0.69" y1="107.89" x2="13.08" y2="118.51"/><line class="cls-4" x1="127.6" y1="13.08" x2="105.19" y2="13.08"/><line class="cls-4" x1="127.6" y1="13.08" x2="115.82" y2="0.69"/><line class="cls-4" x1="115.82" y1="0.69" x2="105.19" y2="13.08"/><line class="cls-4" x1="208.93" y1="120.75" x2="208.93" y2="98.35"/><line class="cls-4" x1="208.93" y1="120.75" x2="221.32" y2="108.97"/><line class="cls-4" x1="221.32" y1="108.97" x2="208.93" y2="98.35"/><line class="cls-4" x1="105.19" y1="207.21" x2="127.6" y2="207.21"/><line class="cls-4" x1="105.19" y1="207.21" x2="116.97" y2="219.61"/><line class="cls-4" x1="116.97" y1="219.61" x2="127.6" y2="207.21"/></g></g></svg>