<svg xmlns="http://www.w3.org/2000/svg" viewBox="0 0 186.03 182.34"><defs><style>.cls-1{fill:none;stroke-width:4px;}.cls-1,.cls-4{stroke:#000;stroke-miterlimit:10;}.cls-2{font-size:62.92px;}.cls-2,.cls-3{font-family:MyriadPro-Regular, Myriad Pro;}.cls-3{font-size:57.85px;}.cls-4{stroke-width:2px;}</style></defs><title>Asset 3</title><g id="Layer_2" data-name="Layer 2"><g id="Working_Layer" data-name="Working Layer"><ellipse class="cls-1" cx="92.76" cy="90.59" rx="78" ry="76"/><line class="cls-1" x1="18.99" y1="112.41" x2="93.17" y2="15.99"/><line class="cls-1" x1="162.86" y1="123.96" x2="93.17" y2="15.99"/><text class="cls-2" transform="translate(51.76 107.1) scale(1.41 1)">W</text><text class="cls-3" transform="translate(95.43 141.68) scale(1.47 1)">G</text><line class="cls-4" x1="13.08" y1="79.11" x2="13.08" y2="101.51"/><line class="cls-4" x1="13.08" y1="79.11" x2="0.69" y2="90.89"/><line class="cls-4" x1="0.69" y1="90.89" x2="13.08" y2="101.51"/><line class="cls-4" x1="104.61" y1="13.08" x2="82.21" y2="13.08"/><line class="cls-4" x1="104.61" y1="13.08" x2="92.83" y2="0.69"/><line class="cls-4" x1="92.83" y1="0.69" x2="82.21" y2="13.08"/><line class="cls-4" x1="172.95" y1="102.09" x2="172.95" y2="79.68"/><line class="cls-4" x1="172.95" y1="102.09" x2="185.34" y2="90.31"/><line class="cls-4" x1="185.34" y1="90.31" x2="172.95" y2="79.68"/><line class="cls-4" x1="79.62" y1="169.26" x2="102.02" y2="169.26"/><line class="cls-4" x1="79.62" y1="169.26" x2="91.4" y2="181.65"/><line class="cls-4" x1="91.4" y1="181.65" x2="102.02" y2="169.26"/></g></g></svg>